<svg width="96" height="96" xmlns="http://www.w3.org/2000/svg" xmlns:xlink="http://www.w3.org/1999/xlink" xml:space="preserve" overflow="hidden"><g transform="translate(-113 -207)"><path d="M145 269C145 273.418 141.418 277 137 277 132.582 277 129 273.418 129 269 129 264.582 132.582 261 137 261 141.418 261 145 264.582 145 269Z"/><path d="M193 269C193 273.418 189.418 277 185 277 180.582 277 177 273.418 177 269 177 264.582 180.582 261 185 261 189.418 261 193 264.582 193 269Z"/><path d="M152 249 152 237 165.7 237C166.8 237 167.8 237.4 168.5 238.2L179.3 249 152 249ZM148 249 122.7 249 133.5 238.2C134.3 237.4 135.3 237 136.3 237L148 237 148 249ZM195 249 186.7 249C185.6 249 184.6 248.6 183.9 247.8L171.3 235.3C169.8 233.8 167.8 233 165.6 233L136.3 233C134.2 233 132.1 233.8 130.6 235.3L118.2 247.8C117.4 248.6 117 249.6 117 250.7L117 261C117 265.4 120.6 269 125 269L126 269C126 262.9 130.9 258 137 258 143.1 258 148 262.9 148 269L174 269C174 262.9 178.9 258 185 258 191.1 258 196 262.9 196 269L201 269C203.2 269 205 267.2 205 265L205 259C205 253.5 200.5 249 195 249Z"/></g></svg>