<svg width="96" height="96" xmlns="http://www.w3.org/2000/svg" xmlns:xlink="http://www.w3.org/1999/xlink" xml:space="preserve" overflow="hidden"><g transform="translate(-603 -217)"><path d="M611 247C611 245.9 611.9 245 613 245L627 245 627 261 611 261 611 247ZM631 245 647 245 647 261 631 261 631 245ZM651 245 667 245 667 261 651 261 651 245ZM671 245 684.3 245C686.2 245 687.9 246.4 688.2 248.3L690.5 262.5C690.7 264 690.9 265.5 690.9 267L677 267 671 261 671 245ZM607 245 607 281C607 283.2 608.8 285 611 285L611.2 285C611.1 284.4 611 283.7 611 283 611 277.5 615.5 273 621 273 626.5 273 631 277.5 631 283 631 283.7 630.9 284.4 630.8 285L667.2 285C667.1 284.4 667 283.7 667 283 667 277.5 671.5 273 677 273 682.5 273 687 277.5 687 283 687 283.7 686.9 284.4 686.8 285L691 285C693.2 285 695 283.2 695 281L695 268.2C695 266.1 694.8 263.9 694.5 261.8L692.2 247.5C691.5 243.7 688.2 240.9 684.3 240.9L611 240.9C608.8 241 607 242.8 607 245Z"/><path d="M684 283C684 286.866 680.866 290 677 290 673.134 290 670 286.866 670 283 670 279.134 673.134 276 677 276 680.866 276 684 279.134 684 283Z"/><path d="M628 283C628 286.866 624.866 290 621 290 617.134 290 614 286.866 614 283 614 279.134 617.134 276 621 276 624.866 276 628 279.134 628 283Z"/></g></svg>