<svg width="96" height="96" xmlns="http://www.w3.org/2000/svg" xmlns:xlink="http://www.w3.org/1999/xlink" xml:space="preserve" overflow="hidden"><g transform="translate(-603 -513)"><path d="M679.12 557.2C678.675 556.454 677.869 555.997 677 556L675.55 556 670.93 549C670.18 548.319 669.192 547.959 668.18 548L646.5 548 642.75 538 628.5 538 628.5 548 620.75 548C618.95 548 617.5 549 617.5 550.17L617.5 556 617 556C615.64 556.005 614.54 557.11 614.54 558.47L614.54 565 683.79 565ZM624.5 561C624.5 561.552 624.052 562 623.5 562L622.5 562C621.948 562 621.5 561.552 621.5 561L621.5 560C621.5 559.448 621.948 559 622.5 559L623.5 559C624.052 559 624.5 559.448 624.5 560ZM632.5 561C632.5 561.552 632.052 562 631.5 562L630.5 562C629.948 562 629.5 561.552 629.5 561L629.5 560C629.5 559.448 629.948 559 630.5 559L631.5 559C632.052 559 632.5 559.448 632.5 560ZM640.5 561C640.5 561.552 640.052 562 639.5 562L638.5 562C637.948 562 637.5 561.552 637.5 561L637.5 560C637.5 559.448 637.948 559 638.5 559L639.5 559C640.052 559 640.5 559.448 640.5 560ZM648.5 561C648.5 561.552 648.052 562 647.5 562L646.5 562C645.948 562 645.5 561.552 645.5 561L645.5 560C645.5 559.448 645.948 559 646.5 559L647.5 559C648.052 559 648.5 559.448 648.5 560ZM656.5 561C656.5 561.552 656.052 562 655.5 562L654.5 562C653.948 562 653.5 561.552 653.5 561L653.5 560C653.5 559.448 653.948 559 654.5 559L655.5 559C656.052 559 656.5 559.448 656.5 560ZM664.5 561C664.5 561.552 664.052 562 663.5 562L662.5 562C661.948 562 661.5 561.552 661.5 561L661.5 560C661.5 559.448 661.948 559 662.5 559L663.5 559C664.052 559 664.5 559.448 664.5 560ZM672.5 561C672.5 561.552 672.052 562 671.5 562L670.5 562C669.948 562 669.5 561.552 669.5 561L669.5 560C669.5 559.448 669.948 559 670.5 559L671.5 559C672.052 559 672.5 559.448 672.5 560Z"/><path d="M642 536 641 533.36C640.688 532.53 639.887 531.985 639 532L628.5 532 628.5 536Z"/><path d="M694.18 568 606.82 568C605.826 567.989 605.011 568.786 605 569.78 605 569.783 605 569.787 605 569.79L609 586.21C609.005 587.193 609.798 587.989 610.78 588L677.45 588C677.933 588 678.397 587.81 678.74 587.47L695.46 571.05C696.162 570.361 696.172 569.234 695.483 568.533 695.141 568.184 694.669 567.991 694.18 568ZM621.5 579.17C621.5 579.628 621.128 580 620.67 580L617.33 580C616.872 580 616.5 579.628 616.5 579.17L616.5 575.83C616.505 575.374 616.874 575.005 617.33 575L620.67 575C621.128 575 621.5 575.372 621.5 575.83ZM632.5 579.17C632.5 579.628 632.128 580 631.67 580L628.33 580C627.872 580 627.5 579.628 627.5 579.17L627.5 575.83C627.505 575.374 627.874 575.005 628.33 575L631.67 575C632.128 575 632.5 575.372 632.5 575.83ZM643.5 579.17C643.5 579.628 643.128 580 642.67 580L639.33 580C638.872 580 638.5 579.628 638.5 579.17L638.5 575.83C638.505 575.374 638.874 575.005 639.33 575L642.67 575C643.128 575 643.5 575.372 643.5 575.83ZM654.5 579.17C654.5 579.628 654.128 580 653.67 580L650.33 580C649.872 580 649.5 579.628 649.5 579.17L649.5 575.83C649.505 575.374 649.874 575.005 650.33 575L653.67 575C654.128 575 654.5 575.372 654.5 575.83ZM665.5 579.17C665.5 579.628 665.128 580 664.67 580L661.33 580C660.872 580 660.5 579.628 660.5 579.17L660.5 575.83C660.505 575.374 660.874 575.005 661.33 575L664.67 575C665.128 575 665.5 575.372 665.5 575.83ZM676.5 579.17C676.5 579.628 676.128 580 675.67 580L672.33 580C671.872 580 671.5 579.628 671.5 579.17L671.5 575.83C671.505 575.374 671.874 575.005 672.33 575L675.67 575C676.128 575 676.5 575.372 676.5 575.83Z"/></g></svg>