<svg width="83" height="84" xmlns="http://www.w3.org/2000/svg" xmlns:xlink="http://www.w3.org/1999/xlink" xml:space="preserve" overflow="hidden"><g transform="translate(-113 -511)"><path d="M51.875 21.6146C51.875 24.9571 49.1654 27.6667 45.8229 27.6667 42.4804 27.6667 39.7708 24.9571 39.7708 21.6146 39.7708 18.2721 42.4804 15.5625 45.8229 15.5625 49.1654 15.5625 51.875 18.2721 51.875 21.6146Z" transform="matrix(1 0 0 1.01205 113 511)"/><path d="M31.125 57.9271C31.125 63.1795 26.867 67.4375 21.6146 67.4375 16.3621 67.4375 12.1042 63.1795 12.1042 57.9271 12.1042 52.6746 16.3621 48.4167 21.6146 48.4167 26.867 48.4167 31.125 52.6746 31.125 57.9271Z" transform="matrix(1 0 0 1.01205 113 511)"/><path d="M70.8958 57.9271C70.8958 63.1795 66.6379 67.4375 61.3854 67.4375 56.133 67.4375 51.875 63.1795 51.875 57.9271 51.875 52.6746 56.133 48.4167 61.3854 48.4167 66.6379 48.4167 70.8958 52.6746 70.8958 57.9271Z" transform="matrix(1 0 0 1.01205 113 511)"/><path d="M44.2667 42.1917 39.9437 41.7594 44.0073 34.7562 53.2583 39.7708C53.1719 39.8573 53.1719 39.9437 53.0854 40.0302L45.8229 44.0938 45.8229 43.9208C45.8229 43.0562 45.1312 42.2781 44.2667 42.1917ZM61.3854 45.8229C63.0281 45.8229 64.5844 46.1688 65.9677 46.774 66.8323 45.2177 67.4375 43.4021 67.4375 41.5 67.4375 35.7938 62.7687 31.125 57.0625 31.125 55.8521 31.125 54.7281 31.3844 53.6042 31.7302 54.0365 32.5948 54.2958 33.5458 54.3823 34.5833L42.7104 28.1854C42.5375 28.099 42.3646 28.0125 42.1917 28.0125 40.2031 27.2344 37.9552 27.926 36.8312 29.8281L30.7792 40.2031C30.6927 40.376 30.6063 40.6354 30.5198 40.8083L12.1042 38.9062 12.1042 42.3646 25.0729 46.3417C30.0875 47.8115 33.7188 52.4802 33.7188 57.9271 33.7188 59.1375 33.5458 60.2615 33.2 61.3854L49.8 61.3854C49.4542 60.2615 49.2812 59.1375 49.2812 57.9271 49.2812 51.2698 54.7281 45.8229 61.3854 45.8229Z" transform="matrix(1 0 0 1.01205 113 511)"/></g></svg>