<svg width="96" height="96" xmlns="http://www.w3.org/2000/svg" xmlns:xlink="http://www.w3.org/1999/xlink" xml:space="preserve" overflow="hidden"><g transform="translate(-366 -217)"><path d="M392.2 301 394 297 434 297 435.8 301 392.2 301ZM397.7 289 430.4 289 432.2 293 395.9 293 397.7 289ZM396 272C396 270.3 397.3 269 399 269 400.7 269 402 270.3 402 272 402 273.7 400.7 275 399 275 397.3 275 396 273.7 396 272ZM396 231C396 228.8 397.8 227 400 227L408 227C408 225.9 408.9 225 410 225L418 225C419.1 225 420 225.9 420 227L428 227C430.2 227 432 228.8 432 231L432 251C432 252.1 431.1 253 430 253L398 253C396.9 253 396 252.1 396 251L396 231ZM428.5 285 399.5 285 401.3 281 426.7 281 428.5 285ZM429 275C427.3 275 426 273.7 426 272 426 270.3 427.3 269 429 269 430.7 269 432 270.3 432 272 432 273.7 430.7 275 429 275ZM431.1 281 432 281C435.3 281 438 278.3 438 275L438 229C438 224.6 434.4 221 430 221L398 221C393.6 221 390 224.6 390 229L390 275C390 278.3 392.7 281 396 281L396.9 281 384.2 309 388.6 309 390.4 305 437.5 305 439.3 309 443.7 309 431.1 281Z"/></g></svg>